<svg xmlns="http://www.w3.org/2000/svg" version="1.1" xmlns:xlink="http://www.w3.org/1999/xlink" xmlns:svgjs="http://svgjs.com/svgjs" width="1440" height="560" preserveAspectRatio="none" viewBox="0 0 1440 560"><g mask="url(&quot;#SvgjsMask1036&quot;)" fill="none"><rect width="1440" height="560" x="0" y="0" fill="rgba(119, 151, 249, 0.67)"></rect><path d="M316 243L315 613" stroke-width="8" stroke="url(#SvgjsLinearGradient1037)" stroke-linecap="round" class="Up"></path><path d="M257 297L256 -38" stroke-width="10" stroke="url(#SvgjsLinearGradient1037)" stroke-linecap="round" class="Up"></path><path d="M1325 102L1324 431" stroke-width="10" stroke="url(#SvgjsLinearGradient1038)" stroke-linecap="round" class="Down"></path><path d="M286 14L285 -127" stroke-width="6" stroke="url(#SvgjsLinearGradient1038)" stroke-linecap="round" class="Down"></path><path d="M1230 388L1229 572" stroke-width="10" stroke="url(#SvgjsLinearGradient1037)" stroke-linecap="round" class="Up"></path><path d="M905 267L904 640" stroke-width="10" stroke="url(#SvgjsLinearGradient1038)" stroke-linecap="round" class="Down"></path><path d="M832 208L831 -78" stroke-width="8" stroke="url(#SvgjsLinearGradient1038)" stroke-linecap="round" class="Down"></path><path d="M1302 302L1301 144" stroke-width="8" stroke="url(#SvgjsLinearGradient1038)" stroke-linecap="round" class="Down"></path><path d="M531 130L530 -41" stroke-width="8" stroke="url(#SvgjsLinearGradient1038)" stroke-linecap="round" class="Down"></path><path d="M789 456L788 755" stroke-width="10" stroke="url(#SvgjsLinearGradient1037)" stroke-linecap="round" class="Up"></path><path d="M407 5L406 -353" stroke-width="6" stroke="url(#SvgjsLinearGradient1038)" stroke-linecap="round" class="Down"></path><path d="M283 455L282 640" stroke-width="6" stroke="url(#SvgjsLinearGradient1038)" stroke-linecap="round" class="Down"></path><path d="M704 41L703 -134" stroke-width="8" stroke="url(#SvgjsLinearGradient1038)" stroke-linecap="round" class="Down"></path><path d="M774 100L773 -190" stroke-width="6" stroke="url(#SvgjsLinearGradient1037)" stroke-linecap="round" class="Up"></path><path d="M1383 126L1382 354" stroke-width="6" stroke="url(#SvgjsLinearGradient1037)" stroke-linecap="round" class="Up"></path><path d="M1250 228L1249 564" stroke-width="10" stroke="url(#SvgjsLinearGradient1038)" stroke-linecap="round" class="Down"></path><path d="M216 201L215 -92" stroke-width="6" stroke="url(#SvgjsLinearGradient1038)" stroke-linecap="round" class="Down"></path><path d="M735 559L734 754" stroke-width="6" stroke="url(#SvgjsLinearGradient1038)" stroke-linecap="round" class="Down"></path><path d="M434 489L433 121" stroke-width="10" stroke="url(#SvgjsLinearGradient1038)" stroke-linecap="round" class="Down"></path><path d="M1283 358L1282 725" stroke-width="10" stroke="url(#SvgjsLinearGradient1038)" stroke-linecap="round" class="Down"></path><path d="M543 236L542 617" stroke-width="8" stroke="url(#SvgjsLinearGradient1038)" stroke-linecap="round" class="Down"></path><path d="M1131 121L1130 375" stroke-width="8" stroke="url(#SvgjsLinearGradient1038)" stroke-linecap="round" class="Down"></path><path d="M1071 71L1070 -318" stroke-width="8" stroke="url(#SvgjsLinearGradient1037)" stroke-linecap="round" class="Up"></path><path d="M797 407L796 692" stroke-width="8" stroke="url(#SvgjsLinearGradient1037)" stroke-linecap="round" class="Up"></path><path d="M782 516L781 804" stroke-width="8" stroke="url(#SvgjsLinearGradient1037)" stroke-linecap="round" class="Up"></path><path d="M244 137L243 548" stroke-width="6" stroke="url(#SvgjsLinearGradient1038)" stroke-linecap="round" class="Down"></path><path d="M215 116L214 -230" stroke-width="8" stroke="url(#SvgjsLinearGradient1037)" stroke-linecap="round" class="Up"></path><path d="M258 304L257 34" stroke-width="8" stroke="url(#SvgjsLinearGradient1038)" stroke-linecap="round" class="Down"></path><path d="M727 43L726 200" stroke-width="6" stroke="url(#SvgjsLinearGradient1038)" stroke-linecap="round" class="Down"></path><path d="M191 274L190 123" stroke-width="6" stroke="url(#SvgjsLinearGradient1038)" stroke-linecap="round" class="Down"></path><path d="M360 412L359 170" stroke-width="6" stroke="url(#SvgjsLinearGradient1037)" stroke-linecap="round" class="Up"></path><path d="M536 360L535 48" stroke-width="6" stroke="url(#SvgjsLinearGradient1038)" stroke-linecap="round" class="Down"></path><path d="M672 324L671 -90" stroke-width="10" stroke="url(#SvgjsLinearGradient1038)" stroke-linecap="round" class="Down"></path><path d="M7 108L6 -199" stroke-width="8" stroke="url(#SvgjsLinearGradient1038)" stroke-linecap="round" class="Down"></path><path d="M1152 71L1151 439" stroke-width="8" stroke="url(#SvgjsLinearGradient1038)" stroke-linecap="round" class="Down"></path><path d="M176 344L175 573" stroke-width="10" stroke="url(#SvgjsLinearGradient1038)" stroke-linecap="round" class="Down"></path></g><defs><mask id="SvgjsMask1036"><rect width="1440" height="560" fill="#ffffff"></rect></mask><linearGradient x1="0%" y1="100%" x2="0%" y2="0%" id="SvgjsLinearGradient1037"><stop stop-color="rgba(253, 173, 236, 0)" offset="0"></stop><stop stop-color="rgba(253, 173, 236, 1)" offset="1"></stop></linearGradient><linearGradient x1="0%" y1="0%" x2="0%" y2="100%" id="SvgjsLinearGradient1038"><stop stop-color="rgba(253, 173, 236, 0)" offset="0"></stop><stop stop-color="rgba(253, 173, 236, 1)" offset="1"></stop></linearGradient></defs></svg>